<svg width="17" height="19" viewBox="0 0 17 19" fill="none" xmlns="http://www.w3.org/2000/svg">
<path d="M9.4787 13.6937L9.2124 12.8337C8.9942 12.1289 8.8851 11.7765 8.969 11.4982C9.0369 11.2731 9.1859 11.079 9.389 10.9513C9.64 10.7935 10.0197 10.7935 10.7791 10.7935H11.1831C13.7532 10.7935 15.0382 10.7935 15.6452 10.0327C15.7145 9.9458 15.7762 9.8533 15.8296 9.7563C16.2965 8.9079 15.7657 7.76487 14.704 5.4789C13.7297 3.38111 13.2425 2.33222 12.338 1.71485C12.2505 1.65508 12.1605 1.5987 12.0683 1.54586C11.116 1 9.9362 1 7.5764 1H7.0646C4.2057 1 2.77628 1 1.88814 1.86053C1 2.72106 1 4.10607 1 6.87607V7.84966C1 9.3054 1 10.0332 1.25834 10.6994C1.51668 11.3656 2.01135 11.9134 3.00069 13.0089L7.0921 17.5394C7.1947 17.6531 7.246 17.7099 7.2913 17.7493C7.7135 18.1167 8.3652 18.0754 8.7344 17.6577C8.774 17.6129 8.8172 17.5501 8.9036 17.4245C9.0388 17.228 9.1064 17.1297 9.1654 17.0323C9.6928 16.1609 9.8524 15.1256 9.6108 14.1429C9.5838 14.0331 9.5488 13.9199 9.4787 13.6937Z" stroke="#757575" stroke-width="1.5" stroke-linecap="round" stroke-linejoin="round"/>
</svg>
