<svg width="460" height="64" viewBox="0 0 460 64" fill="none" xmlns="http://www.w3.org/2000/svg">
<rect x="0.5" y="0.5" width="459" height="63" rx="11.5" fill="white"/>
<rect x="0.5" y="0.5" width="459" height="63" rx="11.5" stroke="#757575"/>
<path d="M135 26.3H131.993C131.45 26.3 131.01 26.74 131.01 27.2835V30.7335H135L134.416 34.532H131.01V41.5H126.623V34.532H123V30.7335H126.575L126.623 27.1285L126.616 26.4735C126.611 25.9536 126.709 25.4378 126.904 24.956C127.099 24.4742 127.388 24.0358 127.754 23.6663C128.12 23.2969 128.555 23.0035 129.035 22.8033C129.515 22.6031 130.03 22.5 130.55 22.5H135V26.3Z" fill="#3D5A98"/>
<path d="M157.822 39.198C154.222 39.198 151.774 36.516 151.774 32.556C151.774 28.596 154.258 25.896 157.894 25.896C160.666 25.896 162.844 27.57 163.366 30.126H161.98C161.44 28.272 159.856 27.138 157.84 27.138C155.014 27.138 153.124 29.298 153.124 32.556C153.124 35.796 155.014 37.956 157.84 37.956C159.874 37.956 161.494 36.858 162.052 35.13H163.438C162.844 37.56 160.594 39.198 157.822 39.198ZM164.797 34.644C164.797 31.98 166.669 30.054 169.225 30.054C171.781 30.054 173.653 31.98 173.653 34.644C173.653 37.29 171.781 39.216 169.225 39.216C166.669 39.216 164.797 37.29 164.797 34.644ZM166.057 34.626C166.057 36.678 167.353 38.1 169.225 38.1C171.079 38.1 172.393 36.678 172.393 34.626C172.393 32.61 171.079 31.17 169.225 31.17C167.353 31.17 166.057 32.61 166.057 34.626ZM176.882 39H175.64V30.288H176.72L176.9 31.8C177.476 30.684 178.628 30.054 179.888 30.054C182.282 30.054 183.272 31.476 183.272 33.672V39H182.03V33.942C182.03 31.908 181.112 31.188 179.672 31.188C177.89 31.188 176.882 32.484 176.882 34.446V39ZM187.745 39H186.521V31.332H184.775V30.288H186.521V27.534H187.745V30.288H189.491V31.332H187.745V39ZM191.721 27.894C191.217 27.894 190.803 27.48 190.803 26.976C190.803 26.472 191.217 26.04 191.721 26.04C192.225 26.04 192.657 26.472 192.657 26.976C192.657 27.48 192.225 27.894 191.721 27.894ZM191.109 39V30.288H192.351V39H191.109ZM196.183 39H194.941V30.288H196.021L196.201 31.8C196.777 30.684 197.929 30.054 199.189 30.054C201.583 30.054 202.573 31.476 202.573 33.672V39H201.331V33.942C201.331 31.908 200.413 31.188 198.973 31.188C197.191 31.188 196.183 32.484 196.183 34.446V39ZM211.168 30.288H212.41V39H211.33L211.168 37.524C210.682 38.532 209.476 39.216 208.108 39.216C206.056 39.216 204.94 37.812 204.94 35.688V30.27H206.2V35.292C206.2 37.362 207.118 38.1 208.504 38.1C210.178 38.1 211.168 36.984 211.168 34.914V30.288ZM218.475 39.216C215.919 39.216 214.209 37.38 214.209 34.644C214.209 31.926 215.901 30.054 218.385 30.054C220.743 30.054 222.345 31.728 222.345 34.194V34.806H215.415C215.505 36.93 216.621 38.154 218.493 38.154C219.915 38.154 220.833 37.542 221.157 36.39H222.345C221.877 38.226 220.527 39.216 218.475 39.216ZM218.385 31.116C216.747 31.116 215.667 32.196 215.451 33.906H221.103C221.103 32.232 220.023 31.116 218.385 31.116ZM231.159 39L228.279 30.288H229.557L231.267 35.544C231.465 36.12 231.627 36.714 231.807 37.416C231.951 36.714 232.239 35.832 232.329 35.544L234.057 30.288H235.335L237.045 35.544C237.207 36.012 237.423 36.768 237.585 37.416C237.765 36.696 237.801 36.48 238.107 35.544L239.835 30.288H241.131L238.179 39H236.973L235.173 33.528C234.957 32.88 234.813 32.34 234.705 31.818C234.579 32.286 234.435 32.808 234.201 33.528L232.401 39H231.159ZM243.295 27.894C242.791 27.894 242.377 27.48 242.377 26.976C242.377 26.472 242.791 26.04 243.295 26.04C243.799 26.04 244.231 26.472 244.231 26.976C244.231 27.48 243.799 27.894 243.295 27.894ZM242.683 39V30.288H243.925V39H242.683ZM248.513 39H247.289V31.332H245.543V30.288H247.289V27.534H248.513V30.288H250.259V31.332H248.513V39ZM253.118 38.982H251.876V25.878H253.118V31.8C253.676 30.756 254.738 30.054 256.196 30.054C258.482 30.054 259.508 31.476 259.508 33.672V39H258.266V33.942C258.266 31.908 257.312 31.188 255.962 31.188C254.09 31.188 253.118 32.574 253.118 34.248V38.982ZM273.816 33.33H268.542V39H267.246V26.112H274.842V27.3H268.542V32.16H273.816V33.33ZM278.53 39.216C276.676 39.216 275.578 38.172 275.578 36.642C275.578 35.04 276.802 34.032 278.836 33.87L281.716 33.636V33.348C281.716 31.638 280.69 31.098 279.412 31.098C277.9 31.098 277 31.782 277 32.952H275.866C275.866 31.188 277.306 30.054 279.448 30.054C281.464 30.054 282.94 31.062 282.94 33.366V39H281.896L281.734 37.47C281.194 38.568 280.006 39.216 278.53 39.216ZM278.818 38.208C280.654 38.208 281.716 36.93 281.716 35.04V34.572L279.142 34.77C277.504 34.914 276.838 35.634 276.838 36.606C276.838 37.668 277.63 38.208 278.818 38.208ZM284.821 34.662C284.821 31.926 286.495 30.054 289.033 30.054C291.049 30.054 292.525 31.224 292.867 33.024H291.625C291.301 31.818 290.257 31.152 289.051 31.152C287.287 31.152 286.045 32.502 286.045 34.644C286.045 36.714 287.197 38.1 288.961 38.1C290.257 38.1 291.301 37.38 291.643 36.264H292.903C292.489 38.046 290.941 39.216 288.961 39.216C286.495 39.216 284.821 37.398 284.821 34.662ZM298.438 39.216C295.882 39.216 294.172 37.38 294.172 34.644C294.172 31.926 295.864 30.054 298.348 30.054C300.706 30.054 302.308 31.728 302.308 34.194V34.806H295.378C295.468 36.93 296.584 38.154 298.456 38.154C299.878 38.154 300.796 37.542 301.12 36.39H302.308C301.84 38.226 300.49 39.216 298.438 39.216ZM298.348 31.116C296.71 31.116 295.63 32.196 295.414 33.906H301.066C301.066 32.232 299.986 31.116 298.348 31.116ZM305.374 39H304.294V25.878H305.536V31.98C306.148 30.702 307.336 30.054 308.812 30.054C311.35 30.054 312.826 32.034 312.826 34.662C312.826 37.272 311.314 39.216 308.776 39.216C307.318 39.216 306.112 38.568 305.5 37.218L305.374 39ZM305.554 34.626C305.554 36.642 306.67 38.082 308.578 38.082C310.468 38.082 311.566 36.642 311.566 34.626C311.566 32.628 310.468 31.17 308.578 31.17C306.67 31.17 305.554 32.628 305.554 34.626ZM314.194 34.644C314.194 31.98 316.066 30.054 318.622 30.054C321.178 30.054 323.05 31.98 323.05 34.644C323.05 37.29 321.178 39.216 318.622 39.216C316.066 39.216 314.194 37.29 314.194 34.644ZM315.454 34.626C315.454 36.678 316.75 38.1 318.622 38.1C320.476 38.1 321.79 36.678 321.79 34.626C321.79 32.61 320.476 31.17 318.622 31.17C316.75 31.17 315.454 32.61 315.454 34.626ZM324.424 34.644C324.424 31.98 326.296 30.054 328.852 30.054C331.408 30.054 333.28 31.98 333.28 34.644C333.28 37.29 331.408 39.216 328.852 39.216C326.296 39.216 324.424 37.29 324.424 34.644ZM325.684 34.626C325.684 36.678 326.98 38.1 328.852 38.1C330.706 38.1 332.02 36.678 332.02 34.626C332.02 32.61 330.706 31.17 328.852 31.17C326.98 31.17 325.684 32.61 325.684 34.626ZM336.563 39H335.321V25.878H336.563V34.788L340.883 30.288H342.449L339.101 33.762L342.467 39H341.027L338.255 34.644L336.563 36.39V39Z" fill="#757575"/>
</svg>
