<svg width="25" height="24" viewBox="0 0 25 24" fill="none" xmlns="http://www.w3.org/2000/svg">
<g clip-path="url(#clip0_13_396)">
<path d="M8.86068 0.789433C6.4627 1.62131 4.39469 3.20024 2.96041 5.29431C1.52612 7.38838 0.80116 9.8872 0.892005 12.4237C0.982851 14.9603 1.88472 17.4008 3.46513 19.3869C5.04555 21.373 7.22121 22.8 9.67255 23.4582C11.6599 23.971 13.7421 23.9935 15.7401 23.5238C17.55 23.1173 19.2234 22.2476 20.5963 21.0001C22.0252 19.662 23.0624 17.9597 23.5963 16.0763C24.1765 14.0282 24.2797 11.8743 23.8982 9.78006H12.7382V14.4094H19.2013C19.0721 15.1478 18.7953 15.8525 18.3875 16.4814C17.9796 17.1102 17.449 17.6504 16.8276 18.0694C16.0384 18.5917 15.1487 18.943 14.2157 19.1007C13.2799 19.2747 12.3202 19.2747 11.3844 19.1007C10.436 18.9048 9.53875 18.5134 8.75005 17.9513C7.48283 17.0543 6.53132 15.7799 6.0313 14.3101C5.52297 12.8126 5.52297 11.1893 6.0313 9.69193C6.38722 8.64234 6.97561 7.68669 7.75255 6.89631C8.64166 5.97521 9.7673 5.3168 11.006 4.99333C12.2446 4.66985 13.5485 4.6938 14.7744 5.06256C15.7322 5.35641 16.608 5.87008 17.3319 6.56256C18.0607 5.83756 18.7882 5.11068 19.5144 4.38193C19.8894 3.99006 20.2982 3.61693 20.6676 3.21568C19.5623 2.18728 18.265 1.387 16.85 0.860683C14.2732 -0.0749616 11.4538 -0.100106 8.86068 0.789433Z" fill="white"/>
<path d="M8.86058 0.789367C11.4535 -0.100776 14.2729 -0.0762934 16.85 0.858742C18.2652 1.38864 19.5619 2.19277 20.6656 3.22499C20.2906 3.62624 19.895 4.00124 19.5125 4.39124C18.785 5.11749 18.0581 5.84124 17.3318 6.56249C16.6079 5.87001 15.7321 5.35635 14.7743 5.06249C13.5488 4.69244 12.245 4.66711 11.006 4.98926C9.76699 5.31141 8.64067 5.96861 7.75058 6.88874C6.97364 7.67912 6.38525 8.63477 6.02933 9.68437L2.14246 6.67499C3.53372 3.91604 5.94261 1.80566 8.86058 0.789367Z" fill="#E33629"/>
<path d="M1.11128 9.65605C1.32004 8.62063 1.66689 7.61792 2.14253 6.6748L6.0294 9.69168C5.52107 11.1891 5.52107 12.8124 6.0294 14.3098C4.7344 15.3098 3.43878 16.3148 2.14253 17.3248C0.952186 14.9554 0.589153 12.2557 1.11128 9.65605Z" fill="#F8BD00"/>
<path d="M12.7381 9.77832H23.8981C24.2797 11.8726 24.1764 14.0264 23.5963 16.0746C23.0623 17.958 22.0252 19.6602 20.5963 20.9983C19.3419 20.0196 18.0819 19.0483 16.8275 18.0696C17.4494 17.6501 17.9802 17.1094 18.3881 16.4798C18.796 15.8503 19.0726 15.1448 19.2013 14.4058H12.7381C12.7363 12.8646 12.7381 11.3214 12.7381 9.77832Z" fill="#587DBD"/>
<path d="M2.14062 17.3251C3.43687 16.3251 4.7325 15.3201 6.0275 14.3101C6.52851 15.7804 7.48138 17.0549 8.75 17.9513C9.54116 18.5107 10.4403 18.899 11.39 19.0913C12.3257 19.2653 13.2855 19.2653 14.2213 19.0913C15.1543 18.9336 16.044 18.5823 16.8331 18.0601C18.0875 19.0388 19.3475 20.0101 20.6019 20.9888C19.2292 22.237 17.5558 23.1073 15.7456 23.5144C13.7476 23.9841 11.6655 23.9616 9.67813 23.4488C8.10632 23.0291 6.63814 22.2893 5.36563 21.2757C4.01886 20.2062 2.91882 18.8587 2.14062 17.3251Z" fill="#319F43"/>
</g>
<defs>
<clipPath id="clip0_13_396">
<rect width="24" height="24" fill="white" transform="translate(0.5)"/>
</clipPath>
</defs>
</svg>
