

<svg width="460" height="64" viewBox="0 0 460 64" fill="none" xmlns="http://www.w3.org/2000/svg">
<rect x="0.5" y="0.5" width="459" height="63" rx="11.5" fill="white"/>
<rect x="0.5" y="0.5" width="459" height="63" rx="11.5" stroke="#757575"/>
<g clip-path="url(#clip0_13_371)">
<path d="M134.861 20.7894C132.463 21.6213 130.395 23.2002 128.96 25.2943C127.526 27.3884 126.801 29.8872 126.892 32.4237C126.983 34.9603 127.885 37.4008 129.465 39.3869C131.046 41.373 133.221 42.8 135.673 43.4582C137.66 43.971 139.742 43.9935 141.74 43.5238C143.55 43.1173 145.223 42.2476 146.596 41.0001C148.025 39.662 149.062 37.9597 149.596 36.0763C150.176 34.0282 150.28 31.8743 149.898 29.7801H138.738V34.4094H145.201C145.072 35.1478 144.795 35.8525 144.387 36.4814C143.98 37.1102 143.449 37.6504 142.828 38.0694C142.038 38.5917 141.149 38.943 140.216 39.1007C139.28 39.2747 138.32 39.2747 137.384 39.1007C136.436 38.9048 135.539 38.5134 134.75 37.9513C133.483 37.0543 132.531 35.7799 132.031 34.3101C131.523 32.8126 131.523 31.1893 132.031 29.6919C132.387 28.6423 132.976 27.6867 133.753 26.8963C134.642 25.9752 135.767 25.3168 137.006 24.9933C138.245 24.6698 139.548 24.6938 140.774 25.0626C141.732 25.3564 142.608 25.8701 143.332 26.5626C144.061 25.8376 144.788 25.1107 145.514 24.3819C145.889 23.9901 146.298 23.6169 146.668 23.2157C145.562 22.1873 144.265 21.387 142.85 20.8607C140.273 19.925 137.454 19.8999 134.861 20.7894Z" fill="white"/>
<path d="M134.861 20.7894C137.453 19.8992 140.273 19.9237 142.85 20.8587C144.265 21.3886 145.562 22.1928 146.666 23.225C146.291 23.6262 145.895 24.0012 145.512 24.3912C144.785 25.1175 144.058 25.8412 143.332 26.5625C142.608 25.87 141.732 25.3563 140.774 25.0625C139.549 24.6924 138.245 24.6671 137.006 24.9893C135.767 25.3114 134.641 25.9686 133.751 26.8887C132.974 27.6791 132.385 28.6348 132.029 29.6844L128.142 26.675C129.534 23.916 131.943 21.8057 134.861 20.7894Z" fill="#E33629"/>
<path d="M127.111 29.6561C127.32 28.6206 127.667 27.6179 128.143 26.6748L132.029 29.6917C131.521 31.1891 131.521 32.8124 132.029 34.3098C130.734 35.3098 129.439 36.3148 128.143 37.3248C126.952 34.9554 126.589 32.2557 127.111 29.6561Z" fill="#F8BD00"/>
<path d="M138.738 29.7783H149.898C150.28 31.8726 150.176 34.0264 149.596 36.0746C149.062 37.958 148.025 39.6602 146.596 40.9983C145.342 40.0196 144.082 39.0483 142.828 38.0696C143.449 37.6501 143.98 37.1094 144.388 36.4798C144.796 35.8503 145.073 35.1448 145.201 34.4058H138.738C138.736 32.8646 138.738 31.3214 138.738 29.7783Z" fill="#587DBD"/>
<path d="M128.141 37.3251C129.437 36.3251 130.732 35.3201 132.027 34.3101C132.529 35.7804 133.481 37.0549 134.75 37.9513C135.541 38.5107 136.44 38.899 137.39 39.0913C138.326 39.2653 139.286 39.2653 140.221 39.0913C141.154 38.9336 142.044 38.5823 142.833 38.0601C144.088 39.0388 145.347 40.0101 146.602 40.9888C145.229 42.237 143.556 43.1073 141.746 43.5144C139.748 43.9841 137.665 43.9616 135.678 43.4488C134.106 43.0291 132.638 42.2893 131.366 41.2757C130.019 40.2062 128.919 38.8587 128.141 37.3251Z" fill="#319F43"/>
</g>
<path d="M167.322 39.198C163.722 39.198 161.274 36.516 161.274 32.556C161.274 28.596 163.758 25.896 167.394 25.896C170.166 25.896 172.344 27.57 172.866 30.126H171.48C170.94 28.272 169.356 27.138 167.34 27.138C164.514 27.138 162.624 29.298 162.624 32.556C162.624 35.796 164.514 37.956 167.34 37.956C169.374 37.956 170.994 36.858 171.552 35.13H172.938C172.344 37.56 170.094 39.198 167.322 39.198ZM174.297 34.644C174.297 31.98 176.169 30.054 178.725 30.054C181.281 30.054 183.153 31.98 183.153 34.644C183.153 37.29 181.281 39.216 178.725 39.216C176.169 39.216 174.297 37.29 174.297 34.644ZM175.557 34.626C175.557 36.678 176.853 38.1 178.725 38.1C180.579 38.1 181.893 36.678 181.893 34.626C181.893 32.61 180.579 31.17 178.725 31.17C176.853 31.17 175.557 32.61 175.557 34.626ZM186.382 39H185.14V30.288H186.22L186.4 31.8C186.976 30.684 188.128 30.054 189.388 30.054C191.782 30.054 192.772 31.476 192.772 33.672V39H191.53V33.942C191.53 31.908 190.612 31.188 189.172 31.188C187.39 31.188 186.382 32.484 186.382 34.446V39ZM197.245 39H196.021V31.332H194.275V30.288H196.021V27.534H197.245V30.288H198.991V31.332H197.245V39ZM201.221 27.894C200.717 27.894 200.303 27.48 200.303 26.976C200.303 26.472 200.717 26.04 201.221 26.04C201.725 26.04 202.157 26.472 202.157 26.976C202.157 27.48 201.725 27.894 201.221 27.894ZM200.609 39V30.288H201.851V39H200.609ZM205.683 39H204.441V30.288H205.521L205.701 31.8C206.277 30.684 207.429 30.054 208.689 30.054C211.083 30.054 212.073 31.476 212.073 33.672V39H210.831V33.942C210.831 31.908 209.913 31.188 208.473 31.188C206.691 31.188 205.683 32.484 205.683 34.446V39ZM220.668 30.288H221.91V39H220.83L220.668 37.524C220.182 38.532 218.976 39.216 217.608 39.216C215.556 39.216 214.44 37.812 214.44 35.688V30.27H215.7V35.292C215.7 37.362 216.618 38.1 218.004 38.1C219.678 38.1 220.668 36.984 220.668 34.914V30.288ZM227.975 39.216C225.419 39.216 223.709 37.38 223.709 34.644C223.709 31.926 225.401 30.054 227.885 30.054C230.243 30.054 231.845 31.728 231.845 34.194V34.806H224.915C225.005 36.93 226.121 38.154 227.993 38.154C229.415 38.154 230.333 37.542 230.657 36.39H231.845C231.377 38.226 230.027 39.216 227.975 39.216ZM227.885 31.116C226.247 31.116 225.167 32.196 224.951 33.906H230.603C230.603 32.232 229.523 31.116 227.885 31.116ZM240.659 39L237.779 30.288H239.057L240.767 35.544C240.965 36.12 241.127 36.714 241.307 37.416C241.451 36.714 241.739 35.832 241.829 35.544L243.557 30.288H244.835L246.545 35.544C246.707 36.012 246.923 36.768 247.085 37.416C247.265 36.696 247.301 36.48 247.607 35.544L249.335 30.288H250.631L247.679 39H246.473L244.673 33.528C244.457 32.88 244.313 32.34 244.205 31.818C244.079 32.286 243.935 32.808 243.701 33.528L241.901 39H240.659ZM252.795 27.894C252.291 27.894 251.877 27.48 251.877 26.976C251.877 26.472 252.291 26.04 252.795 26.04C253.299 26.04 253.731 26.472 253.731 26.976C253.731 27.48 253.299 27.894 252.795 27.894ZM252.183 39V30.288H253.425V39H252.183ZM258.013 39H256.789V31.332H255.043V30.288H256.789V27.534H258.013V30.288H259.759V31.332H258.013V39ZM262.618 38.982H261.376V25.878H262.618V31.8C263.176 30.756 264.238 30.054 265.696 30.054C267.982 30.054 269.008 31.476 269.008 33.672V39H267.766V33.942C267.766 31.908 266.812 31.188 265.462 31.188C263.59 31.188 262.618 32.574 262.618 34.248V38.982ZM282.146 27.12C279.176 27.12 277.304 29.316 277.304 32.61C277.304 35.958 279.284 37.992 282.182 37.992C284.342 37.992 286.448 36.948 286.448 33.852V33.186H281.786V32.034H287.672V39.018H286.646L286.52 36.966C285.836 38.244 284.216 39.216 282.128 39.216C278.474 39.216 275.954 36.588 275.954 32.61C275.954 28.668 278.474 25.896 282.164 25.896C284.882 25.896 286.988 27.444 287.492 29.784H286.088C285.548 28.02 284.036 27.12 282.146 27.12ZM289.364 34.644C289.364 31.98 291.236 30.054 293.792 30.054C296.348 30.054 298.22 31.98 298.22 34.644C298.22 37.29 296.348 39.216 293.792 39.216C291.236 39.216 289.364 37.29 289.364 34.644ZM290.624 34.626C290.624 36.678 291.92 38.1 293.792 38.1C295.646 38.1 296.96 36.678 296.96 34.626C296.96 32.61 295.646 31.17 293.792 31.17C291.92 31.17 290.624 32.61 290.624 34.626ZM299.594 34.644C299.594 31.98 301.466 30.054 304.022 30.054C306.578 30.054 308.45 31.98 308.45 34.644C308.45 37.29 306.578 39.216 304.022 39.216C301.466 39.216 299.594 37.29 299.594 34.644ZM300.854 34.626C300.854 36.678 302.15 38.1 304.022 38.1C305.876 38.1 307.19 36.678 307.19 34.626C307.19 32.61 305.876 31.17 304.022 31.17C302.15 31.17 300.854 32.61 300.854 34.626ZM309.843 34.392C309.843 32.016 311.373 30.054 313.929 30.054C315.441 30.054 316.593 30.756 317.151 32.034L317.277 30.288H318.357V38.73C318.357 41.322 316.701 43.014 314.145 43.014C311.913 43.014 310.347 41.754 310.005 39.648H311.247C311.517 41.052 312.597 41.88 314.163 41.88C315.945 41.88 317.133 40.674 317.133 38.856V36.786C316.539 38.01 315.333 38.73 313.839 38.73C311.355 38.73 309.843 36.768 309.843 34.392ZM311.085 34.374C311.085 36.156 312.183 37.614 314.019 37.614C315.909 37.614 317.025 36.246 317.025 34.374C317.025 32.52 315.945 31.152 314.037 31.152C312.165 31.152 311.085 32.61 311.085 34.374ZM322.244 39H321.002V25.878H322.244V39ZM328.54 39.216C325.984 39.216 324.274 37.38 324.274 34.644C324.274 31.926 325.966 30.054 328.45 30.054C330.808 30.054 332.41 31.728 332.41 34.194V34.806H325.48C325.57 36.93 326.686 38.154 328.558 38.154C329.98 38.154 330.898 37.542 331.222 36.39H332.41C331.942 38.226 330.592 39.216 328.54 39.216ZM328.45 31.116C326.812 31.116 325.732 32.196 325.516 33.906H331.168C331.168 32.232 330.088 31.116 328.45 31.116Z" fill="#757575"/>
<defs>
<clipPath id="clip0_13_371">
<rect width="24" height="24" fill="white" transform="translate(126.5 20)"/>
</clipPath>
</defs>
</svg>
