<svg width="24" height="24" viewBox="0 0 24 24" fill="none" xmlns="http://www.w3.org/2000/svg">
<path d="M2 12C2 10.8954 2.89543 10 4 10C5.65685 10 7 11.3431 7 13V17C7 18.6569 5.65685 20 4 20C2.89543 20 2 19.1046 2 18V12Z" fill="#5229C6" stroke="#5229C6" stroke-width="1.5" stroke-linecap="round" stroke-linejoin="round"/>
<path d="M15.4787 7.30626L15.2124 8.16634C14.9942 8.87111 14.8851 9.22349 14.969 9.5018C15.0369 9.72695 15.1859 9.92102 15.389 10.0487C15.64 10.2065 16.0197 10.2065 16.7791 10.2065H17.1831C19.7532 10.2065 21.0382 10.2065 21.6452 10.9673C21.7145 11.0542 21.7762 11.1467 21.8296 11.2437C22.2965 12.0921 21.7657 13.2351 20.704 15.5211C19.7297 17.6189 19.2425 18.6678 18.338 19.2852C18.2505 19.3449 18.1605 19.4013 18.0683 19.4541C17.116 20 15.9362 20 13.5764 20H13.0646C10.2057 20 8.77628 20 7.88814 19.1395C7 18.2789 7 16.8939 7 14.1239V13.1503C7 11.6946 7 10.9668 7.25834 10.3006C7.51668 9.63441 8.01135 9.08664 9.00069 7.99112L13.0921 3.46056C13.1947 3.34694 13.246 3.29012 13.2913 3.25075C13.7135 2.88328 14.3652 2.92464 14.7344 3.34235C14.774 3.3871 14.8172 3.44991 14.9036 3.57554C15.0388 3.77205 15.1064 3.87031 15.1654 3.96765C15.6928 4.83913 15.8524 5.87436 15.6108 6.85715C15.5838 6.96692 15.5488 7.0801 15.4787 7.30626Z" fill="#5229C6" stroke="#5229C6" stroke-width="1.5" stroke-linecap="round" stroke-linejoin="round"/>
</svg>
