<svg width="17" height="19" viewBox="0 0 17 19" fill="none" xmlns="http://www.w3.org/2000/svg">
<path d="M9.4787 5.30626L9.2124 6.16634C8.9942 6.87111 8.8851 7.22349 8.969 7.5018C9.0369 7.72695 9.1859 7.92102 9.389 8.0487C9.64 8.2065 10.0197 8.2065 10.7791 8.2065H11.1831C13.7532 8.2065 15.0382 8.2065 15.6452 8.9673C15.7145 9.0542 15.7762 9.1467 15.8296 9.2437C16.2965 10.0921 15.7657 11.2351 14.704 13.5211C13.7297 15.6189 13.2425 16.6678 12.338 17.2852C12.2505 17.3449 12.1605 17.4013 12.0683 17.4541C11.116 18 9.9362 18 7.5764 18H7.0646C4.2057 18 2.77628 18 1.88814 17.1395C1 16.2789 1 14.8939 1 12.1239V11.1503C1 9.6946 1 8.9668 1.25834 8.3006C1.51668 7.63441 2.01135 7.08664 3.00069 5.99112L7.0921 1.46056C7.1947 1.34694 7.246 1.29012 7.2913 1.25075C7.7135 0.883281 8.3652 0.924641 8.7344 1.34235C8.774 1.3871 8.8172 1.44991 8.9036 1.57554C9.0388 1.77205 9.1064 1.87031 9.1654 1.96765C9.6928 2.83913 9.8524 3.87436 9.6108 4.85715C9.5838 4.96692 9.5488 5.0801 9.4787 5.30626Z" stroke="#757575" stroke-width="1.5" stroke-linecap="round" stroke-linejoin="round"/>
</svg>
