<svg width="24" height="24" viewBox="0 0 24 24" fill="none" xmlns="http://www.w3.org/2000/svg">
<path d="M12 1.5C10.8065 1.5 9.66193 1.97411 8.81802 2.81802C7.97411 3.66193 7.5 4.80653 7.5 6V12C7.5 13.1935 7.97411 14.3381 8.81802 15.182C9.66193 16.0259 10.8065 16.5 12 16.5C13.1935 16.5 14.3381 16.0259 15.182 15.182C16.0259 14.3381 16.5 13.1935 16.5 12V6C16.5 4.80653 16.0259 3.66193 15.182 2.81802C14.3381 1.97411 13.1935 1.5 12 1.5Z" fill="#757575"/>
<path d="M17.5425 14.295C17.8442 13.5674 17.9996 12.7876 18 12H19.5C19.4997 13.8592 18.809 15.652 17.5618 17.0309C16.3146 18.4097 14.5998 19.2762 12.75 19.4625V22.5H11.25V19.4625C9.39964 19.2775 7.68409 18.4114 6.43666 17.0323C5.18922 15.6532 4.49897 13.8596 4.5 12H6C6.0008 13.5911 6.63319 15.1167 7.75824 16.2418C8.88328 17.3668 10.4089 17.9992 12 18C13.1867 17.9998 14.3466 17.6476 15.3332 16.9881C16.3198 16.3287 17.0886 15.3914 17.5425 14.295Z" fill="#757575"/>
</svg>
