<svg width="32" height="32" viewBox="0 0 32 32" fill="none" xmlns="http://www.w3.org/2000/svg">
<rect width="32" height="32" rx="16" fill="#5229C6"/>
<path d="M6.404 18H5.462V13.56H6.404L7.724 16.872L9.05 13.56H10.004V18H9.062V17.07C9.062 16.11 9.062 15.9 9.11 15.57L8.168 18H7.28L6.344 15.57C6.398 15.9 6.404 16.272 6.404 16.758V18ZM12.2068 18.078C11.3008 18.078 10.6528 17.418 10.6528 16.494C10.6528 15.558 11.2828 14.904 12.1888 14.904C13.1308 14.904 13.7188 15.522 13.7188 16.5V16.734L11.5408 16.746C11.5948 17.142 11.8168 17.328 12.2248 17.328C12.5728 17.328 12.8188 17.202 12.8848 16.986H13.7308C13.6228 17.652 13.0288 18.078 12.2068 18.078ZM12.1948 15.654C11.8288 15.654 11.6248 15.816 11.5528 16.176H12.8008C12.8008 15.858 12.5668 15.654 12.1948 15.654ZM15.526 18.078C14.662 18.078 14.104 17.466 14.104 16.518C14.104 15.564 14.674 14.904 15.586 14.904C15.958 14.904 16.312 15.054 16.486 15.276V13.476H17.41V18H16.54L16.492 17.616C16.33 17.892 15.958 18.078 15.526 18.078ZM15.748 17.232C16.18 17.232 16.48 16.932 16.48 16.482C16.48 16.032 16.18 15.732 15.748 15.732C15.31 15.732 15.034 16.038 15.034 16.482C15.034 16.926 15.31 17.232 15.748 17.232ZM20.0179 16.524H19.1899V18H18.2179V13.56H20.0179C20.9239 13.56 21.5299 14.154 21.5299 15.042C21.5299 15.93 20.9239 16.524 20.0179 16.524ZM19.8019 14.424H19.1899V15.66H19.8019C20.2699 15.66 20.5039 15.456 20.5039 15.042C20.5039 14.628 20.2699 14.424 19.8019 14.424ZM22.8185 18.078C22.1825 18.078 21.7865 17.706 21.7865 17.118C21.7865 16.566 22.1765 16.224 22.8965 16.17L23.7365 16.104V16.056C23.7365 15.762 23.5565 15.606 23.2265 15.606C22.8365 15.606 22.6265 15.756 22.6265 16.026H21.8585C21.8585 15.348 22.4165 14.904 23.2745 14.904C24.1445 14.904 24.6365 15.39 24.6365 16.248V18H23.8205L23.7605 17.604C23.6645 17.88 23.2685 18.078 22.8185 18.078ZM23.1425 17.394C23.4965 17.394 23.7425 17.22 23.7425 16.878V16.716L23.2745 16.758C22.8725 16.794 22.7285 16.884 22.7285 17.076C22.7285 17.292 22.8605 17.394 23.1425 17.394ZM26.2232 18H25.2992V13.476H26.2232V18Z" fill="white"/>
</svg>
